<svg xmlns="http://www.w3.org/2000/svg" viewBox="0 0 283.46 283.46"><path fill="#00b9e4" d="M0 248.03c0 19.49 15.94 35.43 35.43 35.43h212.6c19.49 0 35.43-15.95 35.43-35.43V35.43C283.46 15.94 267.52 0 248.03 0H35.43C15.94 0 0 15.94 0 35.43v212.6z"/><path fill="#fff" d="M72.11 143.17c9.76-2.54 17.2-4.44 30.23-7.23 16.93-3.63 37.6-6.09 38.6-6.21 1 .12 21.67 2.59 38.6 6.21 13.03 2.79 20.47 4.69 30.24 7.23v-49.4c0-6.45 1.8-14.84-14.99-14.84h-30.82v-46.6a5.255 5.255 0 0 0-4.57-4.83h-36.92a5.255 5.255 0 0 0-4.57 4.83v46.6H87.1c-16.79 0-14.99 8.4-14.99 14.84v49.4zM176.07 91.5c7.31 0 13.23 5.92 13.23 13.22 0 7.3-5.93 13.22-13.23 13.22-7.29 0-13.22-5.92-13.22-13.22 0-7.3 5.94-13.22 13.22-13.22m-35.13 0c7.29 0 13.22 5.92 13.22 13.22 0 7.3-5.92 13.22-13.22 13.22-7.3 0-13.23-5.92-13.23-13.22 0-7.3 5.93-13.22 13.23-13.22m-35.15 0c7.29 0 13.22 5.92 13.22 13.22 0 7.3-5.93 13.22-13.22 13.22-7.3 0-13.21-5.92-13.21-13.22-.01-7.3 5.9-13.22 13.21-13.22m35.15 136.9c38.29.01 76.46.01 78.6.02l7.65-67.09s-28.31-7.6-47.63-11.74c-16.76-3.59-37.19-6.04-38.58-6.2v-.01h-.08v.01c-1.39.16-21.82 2.62-38.57 6.2-19.32 4.15-47.63 11.74-47.63 11.74l7.65 67.09c2.13-.01 40.29-.02 78.59-.02m99.76 11.06H42.76c-3.77 0-6.83 3.06-6.83 6.83s3.07 6.83 6.83 6.83H240.7c3.77 0 6.83-3.06 6.83-6.83 0-3.78-3.06-6.83-6.83-6.83"/></svg>