<?xml version="1.0" encoding="iso-8859-1"?>
<!-- Generator: Adobe Illustrator 19.0.0, SVG Export Plug-In . SVG Version: 6.00 Build 0)  -->
<svg version="1.1" id="Capa_1" xmlns="http://www.w3.org/2000/svg" xmlns:xlink="http://www.w3.org/1999/xlink" x="0px" y="0px"
	 viewBox="0 0 512 512" style="enable-background:new 0 0 512 512;" xml:space="preserve">
<path style="fill:#CFD7E1;" d="M446.933,213.333c-7.467-5.333-17.067-4.267-22.4,3.2L297.6,377.6l-56.533-187.733
	c-2.133-6.4-7.467-10.667-13.867-11.733c-6.4-1.067-12.8,2.133-16,7.467L60.8,443.733c-4.267,7.467-2.133,17.067,5.333,22.4
	c2.133,1.067,5.333,2.133,8.533,2.133c5.333,0,10.667-3.2,13.867-7.467L220.8,234.667L276.267,416c2.133,5.333,6.4,9.6,12.8,10.667
	c5.333,1.067,11.733-1.067,16-5.333l146.133-185.6C455.467,229.333,454.4,218.667,446.933,213.333z"/>
<circle style="fill:#FFD15D;" cx="437.333" cy="226.133" r="60.8"/>
<circle style="fill:#F3F3F3;" cx="437.333" cy="226.133" r="27.733"/>
<circle style="fill:#435B6C;" cx="74.667" cy="451.2" r="60.8"/>
<circle style="fill:#F3F3F3;" cx="74.667" cy="451.2" r="27.733"/>
<circle style="fill:#F3705B;" cx="225.067" cy="194.133" r="60.8"/>
<circle style="fill:#F3F3F3;" cx="225.067" cy="194.133" r="27.733"/>
<circle style="fill:#67C6B9;" cx="291.2" cy="411.733" r="60.8"/>
<circle style="fill:#F3F3F3;" cx="291.2" cy="411.733" r="27.733"/>
<path style="fill:#F3705B;" d="M437.333,0c-41.6,0-74.667,33.067-74.667,74.667s74.667,151.467,74.667,151.467
	S512,116.267,512,74.667S478.933,0,437.333,0z"/>
<circle style="fill:#F3F3F3;" cx="437.333" cy="74.667" r="41.6"/>
<path style="fill:#FFD15D;" d="M74.667,225.067C33.067,225.067,0,258.133,0,299.733S74.667,451.2,74.667,451.2
	s74.667-109.867,74.667-151.467S116.267,225.067,74.667,225.067z"/>
<circle style="fill:#F3F3F3;" cx="74.667" cy="300.8" r="41.6"/>
<g>
</g>
<g>
</g>
<g>
</g>
<g>
</g>
<g>
</g>
<g>
</g>
<g>
</g>
<g>
</g>
<g>
</g>
<g>
</g>
<g>
</g>
<g>
</g>
<g>
</g>
<g>
</g>
<g>
</g>
</svg>
