<svg width="284" height="284" viewBox="0 0 284 284" fill="none" xmlns="http://www.w3.org/2000/svg">
<g clip-path="url(#clip0)">
<path d="M0 247.94C0 267.59 15.87 283.47 35.52 283.47H248.31C267.59 283.47 283.46 267.6 283.46 247.94V35.15C283.46 15.87 267.59 0 248.31 0H35.52C15.87 0 0 15.87 0 35.15V247.94Z" fill="#FF6319"/>
<path d="M222.66 34.3C194.31 30.9 168.61 29.01 140.26 29.01C110.78 29.01 85.08 30.52 57.11 34.3C48.42 35.43 43.5 40.35 43.5 47.91V213.84C43.5 219.13 47.66 222.91 51.06 223.66L61.64 225.55C71 227 69 227 88.1 228.19C101.71 229.71 120.61 230.46 139.51 230.46C158.4 230.46 178.06 229.71 191.67 228.19C194.31 228.19 208.5 226.7 218.13 225.55L228.71 223.66C232.87 222.91 236.27 219.51 236.27 213.84V47.91C236.27 40.35 231.36 35.44 222.66 34.3ZM74.5 208.54C69.21 208.16 65.05 204 65.05 199.09C65.43 194.17 69.59 190.02 74.5 190.02C79.42 190.02 83.57 194.17 83.57 199.09C83.57 204.38 79.42 208.54 74.5 208.54ZM204.14 208.54C198.85 208.16 194.69 204 194.69 199.09C195.07 194.17 199.22 190.02 204.14 190.02C209.05 190.02 213.21 194.17 213.21 199.09C213.22 204.38 209.06 208.54 204.14 208.54ZM221.15 162.05V162.81C221.15 167.35 219.26 169.99 213.59 170.75C193.18 174.15 166.73 177.55 140.65 177.55C113.44 177.55 87.74 174.52 66.95 169.99C61.28 168.86 59.39 166.59 59.39 162.05V58.5C59.39 53.97 61.28 50.56 66.95 50.56L213.59 51.31C219.26 51.31 221.15 54.71 221.15 59.25V162.05Z" fill="white"/>
<rect x="99" y="247" width="85" height="13" rx="6.5" fill="white"/>
</g>
<defs>
<clipPath id="clip0">
<rect width="283.46" height="283.46" fill="white"/>
</clipPath>
</defs>
</svg>
