<svg xmlns="http://www.w3.org/2000/svg" viewBox="0 0 283.46 283.46"><path fill="#8c4799" d="M0 248.03c0 19.49 15.94 35.43 35.43 35.43h212.6c19.49 0 35.43-15.95 35.43-35.43V35.43C283.46 15.94 267.52 0 248.03 0H35.43C15.94 0 0 15.94 0 35.43v212.6z"/><path fill="#fff" d="M224.69 251.72c3.78 0 6.8 3.02 6.8 6.8s-3.03 6.8-6.8 6.8H59.15c-3.78 0-6.8-3.03-6.8-6.8 0-3.78 3.02-6.8 6.8-6.8h16.63V236.6H89v15.12h105.83V236.6h13.22v15.12h16.64zm9.45-187.09c-6.42-13.61-11.34-24.19-16.63-28.72-7.94-7.18-41.58-15.12-75.97-15.12-33.26 0-67.66 7.94-75.22 15.12-5.29 4.54-10.58 15.12-17.01 28.72-5.29 11.71-9.45 22.68-9.45 29.1v102.42c0 8.31 2.64 11.71 13.61 20.41 8.31 6.43 11.71 9.07 24.19 9.07h23.44v15.5h82.01v-15.5h23.06c12.47 0 15.87-2.64 23.81-9.07 10.96-9.07 13.61-12.1 13.61-20.41V93.73c0-6.42-4.53-17.39-9.45-29.1M87.87 48.38h107.72v6.04c0 4.54-3.78 8.31-8.31 8.31H96.56c-4.54 0-8.7-3.78-8.7-8.31v-6.04zm8.69 158.36c-4.91 0-8.7-3.78-8.7-8.69 0-4.92 3.78-8.7 8.7-8.7 4.91 0 9.07 3.78 9.07 8.7 0 4.91-4.15 8.69-9.07 8.69m90.71-1.14c-4.91 0-8.7-3.78-8.7-8.69 0-4.92 3.78-8.7 8.7-8.7 4.91 0 9.07 3.78 9.07 8.7s-4.16 8.69-9.07 8.69m29.48-114.89l-16.25 70.3c-1.13 6.05-7.19 10.96-13.23 10.96H96.56c-6.04 0-12.1-4.92-13.23-10.96L66.7 90.71c-1.13-6.04 3.02-10.96 9.07-10.96h132.28c6.06-.01 10.21 4.91 8.7 10.96"/></svg>