<svg xmlns="http://www.w3.org/2000/svg" xmlns:xlink="http://www.w3.org/1999/xlink" viewBox="0 0 283.46 283.46"><defs><path id="a" d="M0 0h283.46v283.46H0z"/></defs><clipPath id="b"><use overflow="visible" xlink:href="#a"/></clipPath><path fill="#00985f" d="M0 248.03c0 19.49 15.94 35.43 35.43 35.43h212.6c19.49 0 35.43-15.95 35.43-35.43V35.43C283.46 15.94 267.52 0 248.03 0H35.43C15.94 0 0 15.94 0 35.43v212.6z" clip-path="url(#b)"/><g><defs><path id="c" d="M0 0h283.46v283.46H0z"/></defs><clipPath id="d"><use overflow="visible" xlink:href="#c"/></clipPath><path fill="#fff" d="M190.87 251.71c3.4 0 6.8 3.03 6.8 6.43 0 4.53-3.4 7.18-6.8 7.18H92.59c-3.78 0-6.42-2.64-6.42-7.18 0-3.4 2.64-6.43 6.42-6.43h10.59v-10.58l13.22 1.51v9.07h50.65v-9.07l13.23-1.51v10.58h10.59zM204.1 74.83l-6.05-14.36c-1.89-4.16-4.15-6.43-8.69-7.56-15.12-3.78-26.08-5.29-40.44-5.67V34.76h26.46c3.4 0 6.43-3.03 6.43-6.8 0-4.16-3.03-7.18-6.43-7.18h-66.9c-4.15 0-7.18 3.02-7.18 7.18 0 3.78 3.03 6.8 7.18 6.8h26.08v12.47c-14.74.38-26.45 1.89-40.43 5.67-4.92 1.51-7.56 3.4-9.45 7.56l-6.05 14.36c-1.89 4.53-1.89 10.59-1.89 15.12V217.6c0 6.42 4.16 10.21 10.59 11.34 19.28 3.78 35.9 5.29 54.43 5.29 17.76 0 34.77-1.51 54.42-5.29 6.04-1.13 10.58-4.92 10.58-11.34V89.95c-.02-4.54-.78-10.59-2.66-15.12M97.51 204.85c-4.54 0-7.94-3.4-7.94-7.94 0-4.92 3.4-8.7 7.94-8.7 4.91 0 8.69 3.78 8.69 8.7 0 4.54-3.78 7.94-8.69 7.94m-7.56-31.75V86.92h103.18v86.18c-13.61 4.15-32.88 6.42-51.4 6.42-18.52 0-37.8-2.64-51.78-6.42m96.76 31.75c-4.54 0-7.94-3.4-7.94-7.94 0-4.92 3.4-8.7 7.94-8.7 4.92 0 8.69 3.78 8.69 8.7 0 4.54-3.78 7.94-8.69 7.94" clip-path="url(#d)"/></g></svg>