<svg width="297" height="282" viewBox="0 0 297 282" fill="none" xmlns="http://www.w3.org/2000/svg">
<path d="M296.933 81.658C296.933 36.553 260.373 -0.00599926 215.272 7.38427e-07C192.708 -0.00199926 172.284 9.148 157.507 23.941C165.706 34.699 171.704 47.203 174.754 60.841C182.319 45.886 197.789 35.616 215.695 35.616C241.04 35.616 261.591 56.171 261.591 81.526C261.591 106.864 241.039 127.422 215.695 127.422C198.01 127.422 182.696 117.416 175.029 102.772C172.047 120.182 165.625 140.532 155.831 163.672C173.501 204.123 197.035 242.916 208.459 260.803H191.185V281.483H211.865V266.087C213.992 269.339 215.237 271.144 215.271 271.144C215.607 271.131 296.933 148.783 296.933 81.658Z" fill="#007AC9"/>
<path d="M148.379 145.471C157.225 122.496 163.323 100.012 163.323 81.659C163.323 64.202 157.797 48.059 148.467 34.784C133.697 13.768 109.311 0 81.675 0C81.668 0 81.668 0 81.662 0C81.658 0 81.651 0 81.648 0C36.552 0 0 36.557 0 81.662C0 149.848 81.352 271.144 81.662 271.144V281.484H102.341V260.804H88.433C101.5 240.199 130.537 191.852 148.379 145.471ZM36.183 81.527C36.183 56.162 56.732 35.617 82.082 35.617C107.431 35.617 127.978 56.172 127.978 81.527C127.978 106.865 107.43 127.423 82.082 127.423C56.731 127.424 36.183 106.873 36.183 81.527Z" fill="#007AC9"/>
<path d="M161.573 260.805H131.957V281.485H161.573V260.805Z" fill="#007AC9"/>
</svg>
